<svg width="18" height="13" viewBox="0 0 18 13" fill="none" xmlns="http://www.w3.org/2000/svg">
<path d="M9.93907 7.33471C9.4227 7.68607 8.5773 7.68607 8.06093 7.33471L1.43941 2.82923C0.922368 2.4772 0.5 1.6974 0.5 1.09499C0.5 0.492574 1.00644 0 1.62543 0H16.3746C16.9936 0 17.5 0.492574 17.5 1.09499C17.5 1.6974 17.0776 2.4772 16.5606 2.82923L9.93907 7.33471Z" fill="white"/>
<path d="M17.1809 3.79665L10.5594 8.30213C10.1278 8.59618 9.57364 8.75787 9.00033 8.75787C8.42702 8.75787 7.87291 8.59618 7.44128 8.30213L0.819093 3.79665C0.708536 3.7216 0.601951 3.63564 0.5 3.54218V11.8402C0.5 12.4781 1.00644 13 1.62543 13H16.3746C16.9936 13 17.5 12.4781 17.5 11.8402V3.54218C17.398 3.63564 17.2915 3.72092 17.1809 3.79665Z" fill="white"/>
</svg>
