<svg width="21" height="17" viewBox="0 0 21 17" fill="none" xmlns="http://www.w3.org/2000/svg">
<path fill-rule="evenodd" clip-rule="evenodd" d="M13.8121 5.12009C13.3658 5.42379 12.923 5.73218 12.4815 6.04471C11.6566 6.62919 10.8254 7.2421 9.97753 7.8067C9.20239 8.32243 8.47411 8.90774 7.70058 9.42568C6.86698 9.98448 5.83974 10.5742 4.81249 10.2633C3.35782 9.82242 2.22176 9.63827 1.15519 9.2084C0.0880877 8.77908 0.469196 8.03668 1.26912 7.64657C2.06932 7.25591 10.9081 3.35037 10.9081 3.35037L16.4324 1.00749C16.9121 0.815609 17.391 0.6229 17.8696 0.428534C18.1923 0.297669 18.5093 0.15079 18.8484 0.0715529C19.2324 -0.0181756 19.6908 -0.0598652 20.038 0.170392C20.5349 0.499489 20.5344 1.21676 20.4708 1.74961C20.3477 2.78798 20.1958 3.82331 20.0458 4.85809C19.8471 6.2261 19.6415 7.59329 19.4336 8.95992C19.2491 10.1731 19.0622 11.3856 18.8739 12.5979C18.7382 13.4729 18.6738 14.3748 18.4926 15.2401C18.4107 15.6313 18.2854 16.0253 18.0681 16.3613C17.1569 17.7685 15.4488 16.5129 14.5145 15.8091C13.7445 15.229 10.482 13.0659 9.67399 12.4858C9.38553 12.2785 9.15983 11.9165 9.16306 11.5502C9.16737 11.0452 9.51724 10.6634 9.85714 10.3406C10.2743 9.94418 10.7055 9.56235 11.1198 9.16202C11.7417 8.56098 12.3633 7.95966 12.9855 7.35834C13.5193 6.84205 14.0534 6.32604 14.5869 5.81004C14.8819 5.52511 15.1617 5.22942 15.423 4.91082C15.5016 4.81502 15.5563 4.73882 15.5652 4.61292C15.5714 4.52319 15.5536 4.43457 15.4876 4.37052C15.2422 4.13446 14.9379 4.36858 14.7178 4.5138C14.4146 4.71397 14.1132 4.91606 13.8126 5.12065L13.8121 5.12009Z" fill="white"/>
</svg>
