<svg width="21" height="21" viewBox="0 0 21 21" fill="none" xmlns="http://www.w3.org/2000/svg">
<path d="M5.31281 20.2692V7.21326H0.973172V20.2692H5.31316H5.31269H5.31281ZM3.14398 5.4311C4.65699 5.4311 5.59885 4.42856 5.59885 3.17562C5.57055 1.89415 4.65687 0.919678 3.17275 0.919678C1.68862 0.919678 0.717529 1.89426 0.717529 3.1755C0.717529 4.45675 1.65916 5.43098 3.11556 5.43098H3.14398V5.4311ZM7.71491 20.2692H12.0542V12.979C12.0542 12.5893 12.0825 12.1986 12.1971 11.9203C12.5106 11.1404 13.2247 10.333 14.4238 10.333C15.9937 10.333 16.622 11.5302 16.622 13.2854V20.2692H20.9612V12.7834C20.9612 8.77332 18.8206 6.90719 15.9656 6.90719C13.6249 6.90719 12.5968 8.21545 12.0257 9.10653H12.0546V7.21373H7.71515C7.77175 8.43848 7.7148 20.2697 7.7148 20.2697V20.2692H7.71491Z" fill="white"/>
</svg>
