<svg width="23" height="22" viewBox="0 0 23 22" fill="none" xmlns="http://www.w3.org/2000/svg">
<path d="M13.4988 5.99841L16.4988 8.99841M4.49882 4.99841V8.99841M18.4988 12.9984V16.9984M9.49882 0.998413V2.99841M6.49882 6.99841H2.49882M20.4988 14.9984H16.4988M10.4988 1.99841H8.49882M21.1388 2.63841L19.8588 1.35841C19.7463 1.24473 19.6124 1.15448 19.4648 1.09289C19.3171 1.0313 19.1588 0.999589 18.9988 0.999589C18.8389 0.999589 18.6805 1.0313 18.5329 1.09289C18.3853 1.15448 18.2513 1.24473 18.1388 1.35841L1.85882 17.6384C1.74514 17.7509 1.65489 17.8849 1.5933 18.0325C1.53171 18.1801 1.5 18.3385 1.5 18.4984C1.5 18.6584 1.53171 18.8167 1.5933 18.9643C1.65489 19.112 1.74514 19.2459 1.85882 19.3584L3.13882 20.6384C3.25065 20.7533 3.38436 20.8447 3.53207 20.907C3.67978 20.9694 3.83849 21.0015 3.99882 21.0015C4.15916 21.0015 4.31787 20.9694 4.46558 20.907C4.61329 20.8447 4.747 20.7533 4.85882 20.6384L21.1388 4.35841C21.2537 4.24659 21.3451 4.11288 21.4074 3.96517C21.4698 3.81746 21.5019 3.65875 21.5019 3.49841C21.5019 3.33808 21.4698 3.17937 21.4074 3.03166C21.3451 2.88395 21.2537 2.75023 21.1388 2.63841Z" stroke="#F58367" stroke-width="2" stroke-linecap="round" stroke-linejoin="round"/>
</svg>
