<svg width="22" height="21" viewBox="0 0 22 21" fill="none" xmlns="http://www.w3.org/2000/svg">
<path d="M13.0333 11.0453L5.12132 18.9563C4.7235 19.3541 4.18393 19.5776 3.62132 19.5776C3.05871 19.5776 2.51914 19.3541 2.12132 18.9563C1.7235 18.5585 1.5 18.0189 1.5 17.4563C1.5 16.8937 1.7235 16.3541 2.12132 15.9563L10.0333 8.04432M14.1883 2.89031C12.6786 1.9498 10.9855 1.34233 9.22221 1.10849C7.45891 0.87465 5.66602 1.01982 3.96332 1.53431C3.81174 1.63082 3.68896 1.76638 3.60789 1.92675C3.52682 2.08712 3.49047 2.26637 3.50265 2.44565C3.51482 2.62493 3.57508 2.79761 3.67709 2.94555C3.7791 3.09348 3.91908 3.2112 4.08232 3.28631C6.35972 4.06414 8.49407 5.21037 10.4003 6.67931M18.1883 6.89032C19.1288 8.40008 19.7362 10.0932 19.97 11.8564C20.2039 13.6197 20.0587 15.4126 19.5443 17.1153C19.4478 17.2666 19.3122 17.3892 19.152 17.4701C18.9917 17.551 18.8126 17.5872 18.6335 17.5751C18.4544 17.5629 18.2819 17.5027 18.1341 17.4009C17.9862 17.2991 17.8685 17.1593 17.7933 16.9963C17.0156 14.7186 15.8694 12.5839 14.4003 10.6773M16.2023 2.27631C16.0154 2.09309 15.7641 1.99046 15.5023 1.99046C15.2406 1.99046 14.9892 2.09309 14.8023 2.27631L10.2023 6.87632C10.0191 7.06324 9.91646 7.31456 9.91646 7.57631C9.91646 7.83807 10.0191 8.08939 10.2023 8.27631L12.8023 10.8763C12.9892 11.0595 13.2406 11.1622 13.5023 11.1622C13.7641 11.1622 14.0154 11.0595 14.2023 10.8763L18.8023 6.27631C18.9855 6.08939 19.0882 5.83807 19.0882 5.57631C19.0882 5.31456 18.9855 5.06324 18.8023 4.87631L16.2023 2.27631Z" stroke="#F58367" stroke-width="2" stroke-linecap="round" stroke-linejoin="round"/>
</svg>
