<svg width="22" height="22" viewBox="0 0 22 22" fill="none" xmlns="http://www.w3.org/2000/svg">
<path d="M4.96702 21.5324C6.23683 22 7.82455 22 11 22C14.1754 22 15.7632 22 17.033 21.5324C19.1194 20.764 20.764 19.1194 21.5324 17.033C22 15.7632 22 14.1754 22 11C22 7.82455 22 6.23683 21.5324 4.96702C20.764 2.8806 19.1194 1.23601 17.033 0.467634C15.7632 0 14.1754 0 11 0C7.82455 0 6.23683 0 4.96702 0.467634C2.8806 1.23601 1.23601 2.8806 0.467634 4.96702C0 6.23683 0 7.82455 0 11C0 14.1754 0 15.7632 0.467634 17.033C1.23601 19.1194 2.8806 20.764 4.96702 21.5324Z" fill="#16171C"/>
<path d="M2.86145 14.2624C2.55507 14.2624 2.26034 14.1051 2.11589 13.8348C1.97144 13.5646 1.98542 13.271 2.14268 13.0206L4.47723 9.61792C4.76148 9.22884 5.23328 8.98305 5.70625 8.98305H9.30593C9.30593 8.98305 8.45552 10.1421 8.22835 10.5463C8.17943 10.692 8.18642 10.8562 8.2668 10.9878C8.36116 11.1439 8.52425 11.2348 8.70598 11.2348H12.4769C12.9604 11.2348 13.4217 11.0298 13.7467 10.671L14.8942 9.40241C15.0363 9.24631 15.0852 9.01916 14.999 8.82578C14.9128 8.63241 14.7322 8.51709 14.5237 8.51709H11.4797C11.418 8.51709 11.3877 8.47282 11.3784 8.45418C11.3679 8.43438 11.3492 8.38429 11.3854 8.33187L12.9196 6.14419C13.2003 5.73997 13.6617 5.5 14.1533 5.5H19.0845C19.646 5.5 20.1795 5.79122 20.4486 6.28398C20.7177 6.77673 20.6956 7.39645 20.3601 7.87406L16.9328 12.8808C16.3271 13.744 15.3322 14.2612 14.2756 14.2612H2.86145V14.2624Z" fill="#7BD98B"/>
<path d="M7.12632 15.1128C7.24048 15.1128 7.26728 15.2724 7.15894 15.3097L1.66506 17.2178C1.47168 17.2853 1.3016 17.0733 1.40761 16.8986L2.35704 15.3434C2.44441 15.2002 2.60051 15.1128 2.7671 15.1128H7.12632Z" fill="#7BD98B"/>
</svg>
