<svg width="171" height="105" viewBox="0 0 171 105" fill="none" xmlns="http://www.w3.org/2000/svg">
<path d="M13.1264 77.8165C10.4044 77.8165 7.78584 76.4211 6.49378 74.0265C5.20172 71.6319 5.33954 69.0305 6.73497 66.791L27.4596 36.5567C29.9748 33.094 34.1783 30.9233 38.3646 30.9233H70.3388C70.3388 30.9233 62.776 41.2081 60.7776 44.8087C60.3297 46.1007 60.3986 47.5651 61.1221 48.7366C61.9663 50.132 63.4134 50.9244 65.0328 50.9244H98.523C102.813 50.9244 106.913 49.0983 109.79 45.9112L119.988 34.6445C121.246 33.249 121.677 31.2334 120.919 29.5279C120.161 27.8224 118.559 26.7887 116.698 26.7887H89.6681C89.1168 26.7887 88.8584 26.3925 88.7722 26.2375C88.6861 26.0652 88.5138 25.6173 88.8411 25.1521L102.468 5.71952C104.949 2.13621 109.032 0 113.408 0H157.2C162.196 0 166.933 2.58412 169.311 6.9599C171.688 11.3357 171.499 16.8313 168.518 21.0864L138.077 65.5678C132.702 73.234 123.865 77.8338 114.476 77.8338H13.1264V77.8165Z" fill="url(#paint0_linear_40004285_20325)"/>
<path d="M12.3684 85.3795H51.0786C52.095 85.3795 52.3362 86.7922 51.3714 87.1195L2.58322 104.071C0.860472 104.674 -0.655546 102.779 0.291965 101.229L8.73343 87.4124C9.50867 86.1375 10.8869 85.3623 12.3857 85.3623L12.3684 85.3795Z" fill="url(#paint1_linear_40004285_20325)"/>
<defs>
<linearGradient id="paint0_linear_40004285_20325" x1="-86.2691" y1="153.023" x2="210.629" y2="114.23" gradientUnits="userSpaceOnUse">
<stop stop-color="#F6DD8E"/>
<stop offset="0.331731" stop-color="#BCD76D"/>
<stop offset="0.639423" stop-color="#76C57A"/>
<stop offset="1" stop-color="#47AA86"/>
</linearGradient>
<linearGradient id="paint1_linear_40004285_20325" x1="-86.2691" y1="153.023" x2="210.629" y2="114.23" gradientUnits="userSpaceOnUse">
<stop stop-color="#F6DD8E"/>
<stop offset="0.331731" stop-color="#BCD76D"/>
<stop offset="0.639423" stop-color="#76C57A"/>
<stop offset="1" stop-color="#47AA86"/>
</linearGradient>
</defs>
</svg>
